<svg xmlns="http://www.w3.org/2000/svg" viewBox="0 0 1446 668.68"><defs><style>.cls-1{font-size:281.31px;font-family:BodoniSvtyTwoSCITCTT-Book, "Bodoni 72 Smallcaps";}.cls-2{fill:red;}</style></defs><g id="Layer_2" data-name="Layer 2"><g id="Layer_1-2" data-name="Layer 1"><path d="M228.92,216.89q-4.46,0-4.86,5.49-1.26,23.63-8.44,37.55t-27.42,19Q167.94,284,118.57,284q-20.25,0-31.65-.42V34.6q0-18.55,2.33-22.15t14.55-4Q116,8,118.36,7.38a2.94,2.94,0,0,0,2.32-3.16q0-4.21-7.59-4.22h-4.65Q101.27,0,90.3.63t-14.77.64Q34.17,1.27,20.25,0H16.46q-5.07,0-5.07,3.8,0,4.65,8,4.64Q38.82,8.44,42,11t3.17,18.15V266.26q0,13.08-3.17,15.82t-19.19,3.59q-11.4.85-11.4,3.8,0,3.79,7.16,3.8l175.21,1.26q12.21,0,21.9.85c6.45.56,10.53.84,12.21.84h4.63q1.27-25.32,1.27-36.29V223.22C234,219,232.43,216.89,228.92,216.89Z"/><path d="M345.59,98.32q-41.77,0-68.57,27.58t-26.8,70.95q0,41.68,28.06,70.53t69,28.84q38.4,0,65-28.42t26.58-69.27q0-42.53-26.79-71.37T345.59,98.32Zm1.68,192q-27,0-42.19-24.41t-15.19-67.79q0-36.21,9.7-59.78,13.94-33.68,44.73-33.68,22.37,0,35,18.1,19.83,28.22,19.84,77Q399.18,290.32,347.27,290.31Z"/><path d="M628.3,273.86q-8.44,0-8.44,7.79a9.13,9.13,0,0,0,1,3.5,12.18,12.18,0,0,1,1.06,2.66c0,.83-.71,1.24-2.11,1.24q-13.08,0-15.61-26.05-3.81-38.22-17.09-52.93t-48.74-18.48q32.91-2.1,51.06-14.91t18.14-33.4q0-18.9-17.09-30.46t-45.36-11.55H465.42q-5.91,0-5.91,3,0,3.38,9.92,3.37t12.24,1.48c1.54,1,2.32,3,2.32,6.12V281.87q0,5.92-14.35,5.91h-5.91c-2.81,0-4.22,1.06-4.22,3.15q0,2.76,11.82,2.76h67.93c3.94,0,5.91-1,5.91-3s-1.52-3-4.57-3q-22.44,0-21.17-5.91V195q23.13.84,32.59,8t11.56,25.21q2.94,28.17,5,35.73A41,41,0,0,0,577,279q14.28,17.24,37,17.23,23.54,0,23.54-13.5Q637.58,273.86,628.3,273.86ZM519.43,119.36c0-4.76.77-7.76,2.3-9s5.51-1.89,11.93-1.89q37.25,0,37.25,37.77,0,42-51.48,42Z"/><path d="M804.47,253.26q.63-4.94.63-5.37,0-11.59-4.22-11.59t-4.64,6.33q-3,35.87-19.74,40.51-10.93,3-72.67,3.37V195.37h10.4q27.06,0,32.88,4.43T755.43,227q1.25,10.54,5,10.55,4.16,0,4.16-6.76c0-1.4-.1-3.23-.31-5.48q-1-10.12-.95-37.56,0-5.47.63-16t.63-15.61q0-8.44-4.22-8.44-3.79,0-5.06,11.81-2.1,19.84-8.37,24.27t-33.06,4.43h-10V109.29h21.43q34.44,0,43.68,2.95,16.39,5.49,22.28,37.56,1.66,8.44,5.45,8.44,2.94,0,2.94-5.41a25.61,25.61,0,0,0-.42-5q-2.54-31.18-3.37-37.42l-.42-6.24v-2.91H651.08c-3.66,0-5.48,1.13-5.48,3.38q0,3,5.06,2.95,11.8,0,14.77,1.06t3,18.35V272.17q0,11.82-2.32,13.71t-15.82,1.9c-3.38,0-5.06,1.28-5.06,3.82q0,3.34,8.9,3.35l80.6-1.26L805.1,295a32.16,32.16,0,0,1-1.27-8.44V262.05A68.55,68.55,0,0,1,804.47,253.26Z"/><path d="M1033.38,286.94q-16.46,0-19.41-1.27t-3-18.14v-149q0-7.17,5.9-9.28,2.12-.42,13.08-.84c5.35-.27,8-1.46,8-3.59q0-4-11-3.59H976.45L940.12,205.08q-3.42,9.69-9.84,29.91L908,179.76q-10.12-24.88-14.33-35.45L883.58,119q-3.37-8.43-5.48-13.08l-1.69-4.64q-43.47,0-50.64.42c-4.78.29-7.17,1.27-7.17,3q0,3.38,5.49,3.37,15.6.44,18.35,3c1.83,1.68,2.74,7.32,2.74,16.88v143q0,11.82-1.47,13.72T833,286.94q-13.51.42-13.51,3.37c0,2.26,2.11,3.38,6.33,3.38h48.11c5.62,0,8.44-1.13,8.44-3.38,0-2-1.84-3-5.49-3q-9.29,0-15.19-.42c-2.82-.85-4.22-3.1-4.22-6.77V135.45q47.25,115.2,57,144.31,3.79,11.4,7.17,11.4,2.54,0,6.75-13.08,14.76-46,24.47-75.12,16.88-48.51,24.48-69.62v136.2q0,13.57-1.48,15.69t-10.34,2.55q-12.24.38-14.13.74a2.07,2.07,0,0,0-1.9,2.21c0,2,2.53,3,7.59,3h75.11c5.07,0,7.6-1.12,7.6-3.38S1037.6,286.94,1033.38,286.94Z"/><text class="cls-1" transform="translate(0 594.98)">Handelsblad</text><circle class="cls-2" cx="1297.5" cy="148.5" r="148.5"/></g></g></svg>