<?xml version="1.0" encoding="utf-8"?>
<!-- Generator: Adobe Illustrator 25.2.2, SVG Export Plug-In . SVG Version: 6.00 Build 0)  -->
<svg version="1.1" id="Layer_1" xmlns="http://www.w3.org/2000/svg" xmlns:xlink="http://www.w3.org/1999/xlink" x="0px" y="0px"
	 viewBox="0 0 1446 668.7" style="enable-background:new 0 0 1446 668.7;" xml:space="preserve">
<style type="text/css">
	.st0{fill:#FFFFFF;}
	.st1{font-family:'BodoniSvtyTwoSCITCTT-Book';}
	.st2{font-size:281.31px;}
	.st3{fill:#FF0000;}
</style>
<g id="Layer_1-2">
	<path class="st0" d="M228.9,216.9c-3,0-4.6,1.8-4.9,5.5c-0.8,15.8-3.7,28.3-8.4,37.5c-4.8,9.3-13.9,15.6-27.4,19
		c-13.5,3.4-36.7,5.1-69.6,5.1c-13.5,0-24.1-0.1-31.7-0.4v-249c0-12.4,0.8-19.8,2.3-22.1s6.4-3.7,14.6-4c8.1-0.3,13-0.7,14.6-1.1
		c1.5-0.3,2.5-1.7,2.3-3.2c0-2.8-2.5-4.2-7.6-4.2h-4.7c-4.8,0-10.8,0.2-18.1,0.6S78.1,1.3,75.5,1.3C48,1.3,29.5,0.8,20.2,0h-3.8
		c-3.4,0-5.1,1.3-5.1,3.8c0,3.1,2.7,4.6,8,4.6c13,0,20.5,0.9,22.6,2.6s3.2,7.8,3.2,18.1v237.1c0,8.7-1.1,14-3.2,15.8
		s-8.5,3-19.2,3.6c-7.6,0.6-11.4,1.8-11.4,3.8c0,2.5,2.4,3.8,7.2,3.8l175.2,1.3c8.1,0,15.4,0.3,21.9,0.9c6.4,0.6,10.5,0.8,12.2,0.8
		h4.6c0.8-16.9,1.3-29,1.3-36.3v-36.7C234,219,232.4,216.9,228.9,216.9z"/>
	<path class="st0" d="M345.6,98.3c-27.8,0-50.7,9.2-68.6,27.6c-17.9,18.4-26.8,42-26.8,71c0,27.8,9.4,51.3,28.1,70.5
		c18.7,19.2,41.7,28.8,69,28.8c25.6,0,47.3-9.5,65-28.4s26.6-42,26.6-69.3c0-28.4-8.9-52.1-26.8-71.4
		C394.2,107.9,372,98.3,345.6,98.3z M347.3,290.3c-18,0-32.1-8.1-42.2-24.4c-10.1-16.3-15.2-38.9-15.2-67.8
		c0-24.1,3.2-44.1,9.7-59.8c9.3-22.5,24.2-33.7,44.7-33.7c14.9,0,26.6,6,35,18.1c13.2,18.8,19.8,44.5,19.8,77
		C399.2,260.1,381.9,290.3,347.3,290.3L347.3,290.3z"/>
	<path class="st0" d="M628.3,273.9c-5.6,0-8.4,2.6-8.4,7.8c0.1,1.2,0.4,2.4,1,3.5c0.5,0.8,0.8,1.7,1.1,2.7c0,0.8-0.7,1.2-2.1,1.2
		c-8.7,0-13.9-8.7-15.6-26c-2.5-25.5-8.2-43.1-17.1-52.9s-25.1-16-48.7-18.5c21.9-1.4,39-6.4,51.1-14.9
		c12.1-8.5,18.1-19.7,18.1-33.4c0-12.6-5.7-22.8-17.1-30.5s-26.5-11.6-45.4-11.6h-79.7c-3.9,0-5.9,1-5.9,3c0,2.3,3.3,3.4,9.9,3.4
		c6.6,0,10.7,0.5,12.2,1.5c1.5,1,2.3,3,2.3,6.1v166.6c0,3.9-4.8,5.9-14.4,5.9h-5.9c-2.8,0-4.2,1.1-4.2,3.1c0,1.8,3.9,2.8,11.8,2.8
		h67.9c3.9,0,5.9-1,5.9-3s-1.5-3-4.6-3c-15,0-22-2-21.2-5.9V195c15.4,0.6,26.3,3.2,32.6,8s10.2,13.2,11.6,25.2
		c2,18.8,3.6,30.7,5,35.7c1.7,5.6,4.6,10.7,8.4,15.1c9.5,11.5,21.9,17.2,37,17.2c15.7,0,23.5-4.5,23.5-13.5
		C637.6,276.8,634.5,273.9,628.3,273.9z M519.4,119.4c0-4.8,0.8-7.8,2.3-9s5.5-1.9,11.9-1.9c24.8,0,37.2,12.6,37.2,37.8
		c0,28-17.2,42-51.5,42V119.4z"/>
	<path class="st0" d="M804.5,253.3c0.4-3.3,0.6-5.1,0.6-5.4c0-7.7-1.4-11.6-4.2-11.6c-2.8,0-4.4,2.1-4.6,6.3
		c-2,23.9-8.6,37.4-19.7,40.5c-7.3,2-31.5,3.1-72.7,3.4v-91.1h10.4c18,0,29,1.5,32.9,4.4s6.7,12,8.3,27.2c0.8,7,2.5,10.5,5,10.6
		c2.8,0,4.2-2.3,4.2-6.8c0-1.4-0.1-3.2-0.3-5.5c-0.7-6.7-1-19.3-1-37.6c0-3.6,0.2-9,0.6-16c0.4-7,0.6-12.2,0.6-15.6
		c0-5.6-1.4-8.4-4.2-8.4c-2.5,0-4.2,3.9-5.1,11.8c-1.4,13.2-4.2,21.3-8.4,24.3c-4.2,3-15.2,4.4-33.1,4.4h-10v-78.9h21.4
		c23,0,37.5,1,43.7,2.9c10.9,3.7,18.4,16.2,22.3,37.6c1.1,5.6,2.9,8.4,5.5,8.4c2,0,2.9-1.8,2.9-5.4c0-1.7-0.1-3.4-0.4-5
		c-1.7-20.8-2.8-33.3-3.4-37.4l-0.4-6.2v-2.9H651.1c-3.7,0-5.5,1.1-5.5,3.4c0,2,1.7,3,5.1,2.9c7.9,0,12.8,0.4,14.8,1.1s3,6.8,3,18.3
		v145.2c0,7.9-0.8,12.5-2.3,13.7c-1.5,1.3-6.8,1.9-15.8,1.9c-3.4,0-5.1,1.3-5.1,3.8c0,2.2,3,3.3,8.9,3.4l80.6-1.3l70.4,1.3
		c-0.8-2.7-1.2-5.6-1.3-8.4V262C803.9,259.1,804.1,256.2,804.5,253.3z"/>
	<path class="st0" d="M1033.4,286.9c-11,0-17.4-0.4-19.4-1.3c-2-0.8-3-6.9-3-18.1v-149c0-4.8,2-7.9,5.9-9.3
		c1.4-0.3,5.8-0.6,13.1-0.8c5.3-0.3,8-1.5,8-3.6c0-2.7-3.7-3.9-11-3.6h-50.5l-36.3,103.8c-2.3,6.5-5.6,16.4-9.8,29.9L908,179.8
		c-6.7-16.6-11.5-28.4-14.3-35.4L883.6,119c-2.2-5.6-4.1-10-5.5-13.1l-1.7-4.6c-29,0-45.9,0.1-50.6,0.4c-4.8,0.3-7.2,1.3-7.2,3
		c0,2.3,1.8,3.4,5.5,3.4c10.4,0.3,16.5,1.3,18.3,3c1.8,1.7,2.7,7.3,2.7,16.9v143c0,7.9-0.5,12.5-1.5,13.7s-4.6,2-10.7,2.3
		c-9,0.3-13.5,1.4-13.5,3.4c0,2.3,2.1,3.4,6.3,3.4h48.1c5.6,0,8.4-1.1,8.4-3.4c0-2-1.8-3-5.5-3c-6.2,0-11.3-0.1-15.2-0.4
		c-2.8-0.9-4.2-3.1-4.2-6.8V135.4c31.5,76.8,50.5,124.9,57,144.3c2.5,7.6,4.9,11.4,7.2,11.4c1.7,0,3.9-4.4,6.8-13.1
		c9.8-30.7,18-55.7,24.5-75.1c11.3-32.3,19.4-55.5,24.5-69.6v136.2c0,9-0.5,14.3-1.5,15.7c-1,1.4-4.4,2.3-10.3,2.5
		c-8.2,0.3-12.9,0.5-14.1,0.7c-1.1,0.1-2,1.1-1.9,2.2c0,2,2.5,3,7.6,3h75.1c5.1,0,7.6-1.1,7.6-3.4S1037.6,286.9,1033.4,286.9z"/>
	<text transform="matrix(1 0 0 1 0 594.98)" class="st0 st1 st2">Handelsblad</text>
	<circle class="st3" cx="1297.5" cy="148.5" r="148.5"/>
</g>
</svg>
